<mxfile host="app.diagrams.net" modified="2022-12-08T15:04:59.397Z" agent="5.0 (Windows NT 10.0; Win64; x64) AppleWebKit/537.36 (KHTML, like Gecko) Chrome/106.0.0.0 Safari/537.36 OPR/92.0.0.0 (Edition std-1)" version="20.6.1" etag="ifax0geiIXVP-WGoBGYo" type="github">
  <diagram id="F7zY0i2kokBuvas_ljZB" name="Page-1">
    <mxGraphModel dx="1221" dy="811" grid="0" gridSize="10" guides="1" tooltips="1" connect="1" arrows="1" fold="1" page="1" pageScale="1" pageWidth="3300" pageHeight="4681" math="0" shadow="0">
      <root>
        <mxCell id="0" />
        <mxCell id="1" parent="0" />
        <mxCell id="WH7-Di_XXNlw8b60x9Ww-1" value="Init" style="rounded=1;whiteSpace=wrap;html=1;" vertex="1" parent="1">
          <mxGeometry x="240" y="110" width="120" height="60" as="geometry" />
        </mxCell>
        <mxCell id="WH7-Di_XXNlw8b60x9Ww-73" style="edgeStyle=orthogonalEdgeStyle;rounded=0;sketch=0;jumpStyle=arc;jumpSize=10;orthogonalLoop=1;jettySize=auto;html=1;exitX=1;exitY=0.5;exitDx=0;exitDy=0;entryX=0;entryY=0.5;entryDx=0;entryDy=0;shadow=0;" edge="1" parent="1" source="WH7-Di_XXNlw8b60x9Ww-2" target="WH7-Di_XXNlw8b60x9Ww-3">
          <mxGeometry relative="1" as="geometry" />
        </mxCell>
        <mxCell id="WH7-Di_XXNlw8b60x9Ww-2" value="GPS UART Interrupt" style="rounded=1;whiteSpace=wrap;html=1;" vertex="1" parent="1">
          <mxGeometry x="400" y="120" width="120" height="60" as="geometry" />
        </mxCell>
        <mxCell id="WH7-Di_XXNlw8b60x9Ww-3" value="Extract lattitude and longtitude" style="rounded=1;whiteSpace=wrap;html=1;" vertex="1" parent="1">
          <mxGeometry x="570" y="120" width="200" height="60" as="geometry" />
        </mxCell>
        <mxCell id="WH7-Di_XXNlw8b60x9Ww-75" style="edgeStyle=orthogonalEdgeStyle;rounded=0;sketch=0;jumpStyle=arc;jumpSize=10;orthogonalLoop=1;jettySize=auto;html=1;exitX=0.5;exitY=1;exitDx=0;exitDy=0;shadow=0;" edge="1" parent="1" source="WH7-Di_XXNlw8b60x9Ww-4">
          <mxGeometry relative="1" as="geometry">
            <mxPoint x="539.9999999999998" y="320" as="targetPoint" />
          </mxGeometry>
        </mxCell>
        <mxCell id="WH7-Di_XXNlw8b60x9Ww-4" value="Cart UART Controller" style="rounded=1;whiteSpace=wrap;html=1;" vertex="1" parent="1">
          <mxGeometry x="560" y="220" width="120" height="60" as="geometry" />
        </mxCell>
        <mxCell id="WH7-Di_XXNlw8b60x9Ww-74" style="edgeStyle=orthogonalEdgeStyle;rounded=0;sketch=0;jumpStyle=arc;jumpSize=10;orthogonalLoop=1;jettySize=auto;html=1;exitX=0.5;exitY=1;exitDx=0;exitDy=0;entryX=0.5;entryY=0;entryDx=0;entryDy=0;shadow=0;" edge="1" parent="1" source="WH7-Di_XXNlw8b60x9Ww-5" target="WH7-Di_XXNlw8b60x9Ww-6">
          <mxGeometry relative="1" as="geometry">
            <Array as="points">
              <mxPoint x="460" y="300" />
              <mxPoint x="540" y="300" />
            </Array>
          </mxGeometry>
        </mxCell>
        <mxCell id="WH7-Di_XXNlw8b60x9Ww-5" value="Bluetooth UART Interrupt" style="rounded=1;whiteSpace=wrap;html=1;" vertex="1" parent="1">
          <mxGeometry x="390" y="200" width="140" height="60" as="geometry" />
        </mxCell>
        <mxCell id="WH7-Di_XXNlw8b60x9Ww-19" style="edgeStyle=orthogonalEdgeStyle;rounded=0;orthogonalLoop=1;jettySize=auto;html=1;exitX=1;exitY=0.5;exitDx=0;exitDy=0;entryX=0;entryY=0.5;entryDx=0;entryDy=0;" edge="1" parent="1" source="WH7-Di_XXNlw8b60x9Ww-6" target="WH7-Di_XXNlw8b60x9Ww-7">
          <mxGeometry relative="1" as="geometry" />
        </mxCell>
        <mxCell id="WH7-Di_XXNlw8b60x9Ww-20" style="edgeStyle=orthogonalEdgeStyle;rounded=0;orthogonalLoop=1;jettySize=auto;html=1;exitX=1;exitY=0.5;exitDx=0;exitDy=0;entryX=0;entryY=0.5;entryDx=0;entryDy=0;" edge="1" parent="1" source="WH7-Di_XXNlw8b60x9Ww-6" target="WH7-Di_XXNlw8b60x9Ww-9">
          <mxGeometry relative="1" as="geometry">
            <Array as="points">
              <mxPoint x="580" y="450" />
            </Array>
          </mxGeometry>
        </mxCell>
        <mxCell id="WH7-Di_XXNlw8b60x9Ww-21" style="edgeStyle=orthogonalEdgeStyle;rounded=0;orthogonalLoop=1;jettySize=auto;html=1;exitX=1;exitY=0.5;exitDx=0;exitDy=0;entryX=0;entryY=0.5;entryDx=0;entryDy=0;" edge="1" parent="1" source="WH7-Di_XXNlw8b60x9Ww-6" target="WH7-Di_XXNlw8b60x9Ww-8">
          <mxGeometry relative="1" as="geometry">
            <Array as="points">
              <mxPoint x="580" y="530" />
            </Array>
          </mxGeometry>
        </mxCell>
        <mxCell id="WH7-Di_XXNlw8b60x9Ww-22" style="edgeStyle=orthogonalEdgeStyle;rounded=0;orthogonalLoop=1;jettySize=auto;html=1;exitX=1;exitY=0.5;exitDx=0;exitDy=0;entryX=0;entryY=0.5;entryDx=0;entryDy=0;" edge="1" parent="1" source="WH7-Di_XXNlw8b60x9Ww-6" target="WH7-Di_XXNlw8b60x9Ww-15">
          <mxGeometry relative="1" as="geometry">
            <Array as="points">
              <mxPoint x="580" y="610" />
            </Array>
          </mxGeometry>
        </mxCell>
        <mxCell id="WH7-Di_XXNlw8b60x9Ww-23" style="edgeStyle=orthogonalEdgeStyle;rounded=0;orthogonalLoop=1;jettySize=auto;html=1;exitX=1;exitY=0.5;exitDx=0;exitDy=0;entryX=0;entryY=0.5;entryDx=0;entryDy=0;" edge="1" parent="1" source="WH7-Di_XXNlw8b60x9Ww-6" target="WH7-Di_XXNlw8b60x9Ww-10">
          <mxGeometry relative="1" as="geometry">
            <Array as="points">
              <mxPoint x="580" y="400" />
              <mxPoint x="800" y="400" />
              <mxPoint x="800" y="360" />
            </Array>
          </mxGeometry>
        </mxCell>
        <mxCell id="WH7-Di_XXNlw8b60x9Ww-24" style="edgeStyle=orthogonalEdgeStyle;rounded=0;orthogonalLoop=1;jettySize=auto;html=1;exitX=1;exitY=0.5;exitDx=0;exitDy=0;entryX=0;entryY=0.5;entryDx=0;entryDy=0;" edge="1" parent="1" source="WH7-Di_XXNlw8b60x9Ww-6" target="WH7-Di_XXNlw8b60x9Ww-11">
          <mxGeometry relative="1" as="geometry">
            <Array as="points">
              <mxPoint x="580" y="490" />
              <mxPoint x="800" y="490" />
              <mxPoint x="800" y="450" />
            </Array>
          </mxGeometry>
        </mxCell>
        <mxCell id="WH7-Di_XXNlw8b60x9Ww-25" style="edgeStyle=orthogonalEdgeStyle;rounded=0;orthogonalLoop=1;jettySize=auto;html=1;exitX=1;exitY=0.5;exitDx=0;exitDy=0;entryX=0;entryY=0.5;entryDx=0;entryDy=0;" edge="1" parent="1" source="WH7-Di_XXNlw8b60x9Ww-6" target="WH7-Di_XXNlw8b60x9Ww-12">
          <mxGeometry relative="1" as="geometry">
            <Array as="points">
              <mxPoint x="580" y="570" />
              <mxPoint x="800" y="570" />
              <mxPoint x="800" y="530" />
            </Array>
          </mxGeometry>
        </mxCell>
        <mxCell id="WH7-Di_XXNlw8b60x9Ww-26" style="edgeStyle=orthogonalEdgeStyle;rounded=0;orthogonalLoop=1;jettySize=auto;html=1;exitX=1;exitY=0.5;exitDx=0;exitDy=0;entryX=0;entryY=0.5;entryDx=0;entryDy=0;" edge="1" parent="1" source="WH7-Di_XXNlw8b60x9Ww-6" target="WH7-Di_XXNlw8b60x9Ww-14">
          <mxGeometry relative="1" as="geometry">
            <Array as="points">
              <mxPoint x="580" y="400" />
              <mxPoint x="1010" y="400" />
              <mxPoint x="1010" y="360" />
            </Array>
          </mxGeometry>
        </mxCell>
        <mxCell id="WH7-Di_XXNlw8b60x9Ww-27" style="edgeStyle=orthogonalEdgeStyle;rounded=0;orthogonalLoop=1;jettySize=auto;html=1;exitX=1;exitY=0.5;exitDx=0;exitDy=0;entryX=0;entryY=0.5;entryDx=0;entryDy=0;" edge="1" parent="1" source="WH7-Di_XXNlw8b60x9Ww-6" target="WH7-Di_XXNlw8b60x9Ww-18">
          <mxGeometry relative="1" as="geometry">
            <Array as="points">
              <mxPoint x="580" y="400" />
              <mxPoint x="1200" y="400" />
              <mxPoint x="1200" y="360" />
            </Array>
          </mxGeometry>
        </mxCell>
        <mxCell id="WH7-Di_XXNlw8b60x9Ww-44" style="edgeStyle=orthogonalEdgeStyle;rounded=0;sketch=0;jumpStyle=arc;jumpSize=10;orthogonalLoop=1;jettySize=auto;html=1;exitX=1;exitY=0.5;exitDx=0;exitDy=0;entryX=0;entryY=0.5;entryDx=0;entryDy=0;shadow=0;" edge="1" parent="1" source="WH7-Di_XXNlw8b60x9Ww-6" target="WH7-Di_XXNlw8b60x9Ww-17">
          <mxGeometry relative="1" as="geometry">
            <Array as="points">
              <mxPoint x="580" y="490" />
              <mxPoint x="1010" y="490" />
              <mxPoint x="1010" y="450" />
            </Array>
          </mxGeometry>
        </mxCell>
        <mxCell id="WH7-Di_XXNlw8b60x9Ww-45" style="edgeStyle=orthogonalEdgeStyle;rounded=0;sketch=0;jumpStyle=arc;jumpSize=10;orthogonalLoop=1;jettySize=auto;html=1;exitX=1;exitY=0.5;exitDx=0;exitDy=0;entryX=-0.017;entryY=0.594;entryDx=0;entryDy=0;entryPerimeter=0;shadow=0;" edge="1" parent="1" source="WH7-Di_XXNlw8b60x9Ww-6" target="WH7-Di_XXNlw8b60x9Ww-16">
          <mxGeometry relative="1" as="geometry">
            <Array as="points">
              <mxPoint x="580" y="490" />
              <mxPoint x="1200" y="490" />
              <mxPoint x="1200" y="456" />
            </Array>
          </mxGeometry>
        </mxCell>
        <mxCell id="WH7-Di_XXNlw8b60x9Ww-6" value="command" style="rhombus;whiteSpace=wrap;html=1;" vertex="1" parent="1">
          <mxGeometry x="500" y="320" width="80" height="80" as="geometry" />
        </mxCell>
        <mxCell id="WH7-Di_XXNlw8b60x9Ww-49" style="edgeStyle=orthogonalEdgeStyle;rounded=0;sketch=0;jumpStyle=arc;jumpSize=10;orthogonalLoop=1;jettySize=auto;html=1;exitX=1;exitY=0.5;exitDx=0;exitDy=0;shadow=0;" edge="1" parent="1" source="WH7-Di_XXNlw8b60x9Ww-7">
          <mxGeometry relative="1" as="geometry">
            <mxPoint x="770" y="360" as="targetPoint" />
          </mxGeometry>
        </mxCell>
        <mxCell id="WH7-Di_XXNlw8b60x9Ww-7" value="Forward" style="rounded=1;whiteSpace=wrap;html=1;" vertex="1" parent="1">
          <mxGeometry x="630" y="330" width="120" height="60" as="geometry" />
        </mxCell>
        <mxCell id="WH7-Di_XXNlw8b60x9Ww-50" style="edgeStyle=orthogonalEdgeStyle;rounded=0;sketch=0;jumpStyle=arc;jumpSize=10;orthogonalLoop=1;jettySize=auto;html=1;exitX=1;exitY=0.5;exitDx=0;exitDy=0;shadow=0;" edge="1" parent="1" source="WH7-Di_XXNlw8b60x9Ww-8">
          <mxGeometry relative="1" as="geometry">
            <mxPoint x="770" y="450" as="targetPoint" />
          </mxGeometry>
        </mxCell>
        <mxCell id="WH7-Di_XXNlw8b60x9Ww-8" value="Stop" style="rounded=1;whiteSpace=wrap;html=1;" vertex="1" parent="1">
          <mxGeometry x="630" y="500" width="120" height="60" as="geometry" />
        </mxCell>
        <mxCell id="WH7-Di_XXNlw8b60x9Ww-48" style="edgeStyle=orthogonalEdgeStyle;rounded=0;sketch=0;jumpStyle=arc;jumpSize=10;orthogonalLoop=1;jettySize=auto;html=1;exitX=1;exitY=0.5;exitDx=0;exitDy=0;shadow=0;" edge="1" parent="1" source="WH7-Di_XXNlw8b60x9Ww-9">
          <mxGeometry relative="1" as="geometry">
            <mxPoint x="770" y="300" as="targetPoint" />
          </mxGeometry>
        </mxCell>
        <mxCell id="WH7-Di_XXNlw8b60x9Ww-9" value="Backward" style="rounded=1;whiteSpace=wrap;html=1;" vertex="1" parent="1">
          <mxGeometry x="630" y="420" width="120" height="60" as="geometry" />
        </mxCell>
        <mxCell id="WH7-Di_XXNlw8b60x9Ww-52" style="edgeStyle=orthogonalEdgeStyle;rounded=0;sketch=0;jumpStyle=arc;jumpSize=10;orthogonalLoop=1;jettySize=auto;html=1;exitX=1;exitY=0.5;exitDx=0;exitDy=0;shadow=0;" edge="1" parent="1" source="WH7-Di_XXNlw8b60x9Ww-10">
          <mxGeometry relative="1" as="geometry">
            <mxPoint x="990" y="360" as="targetPoint" />
          </mxGeometry>
        </mxCell>
        <mxCell id="WH7-Di_XXNlw8b60x9Ww-10" value="Left" style="rounded=1;whiteSpace=wrap;html=1;" vertex="1" parent="1">
          <mxGeometry x="850" y="330" width="120" height="60" as="geometry" />
        </mxCell>
        <mxCell id="WH7-Di_XXNlw8b60x9Ww-51" style="edgeStyle=orthogonalEdgeStyle;rounded=0;sketch=0;jumpStyle=arc;jumpSize=10;orthogonalLoop=1;jettySize=auto;html=1;exitX=1;exitY=0.5;exitDx=0;exitDy=0;shadow=0;" edge="1" parent="1" source="WH7-Di_XXNlw8b60x9Ww-11">
          <mxGeometry relative="1" as="geometry">
            <mxPoint x="990" y="300" as="targetPoint" />
          </mxGeometry>
        </mxCell>
        <mxCell id="WH7-Di_XXNlw8b60x9Ww-11" value="Right" style="rounded=1;whiteSpace=wrap;html=1;" vertex="1" parent="1">
          <mxGeometry x="850" y="420" width="120" height="60" as="geometry" />
        </mxCell>
        <mxCell id="WH7-Di_XXNlw8b60x9Ww-53" style="edgeStyle=orthogonalEdgeStyle;rounded=0;sketch=0;jumpStyle=arc;jumpSize=10;orthogonalLoop=1;jettySize=auto;html=1;exitX=1;exitY=0.5;exitDx=0;exitDy=0;shadow=0;" edge="1" parent="1" source="WH7-Di_XXNlw8b60x9Ww-12">
          <mxGeometry relative="1" as="geometry">
            <mxPoint x="990" y="450" as="targetPoint" />
          </mxGeometry>
        </mxCell>
        <mxCell id="WH7-Di_XXNlw8b60x9Ww-12" value="Straight" style="rounded=1;whiteSpace=wrap;html=1;" vertex="1" parent="1">
          <mxGeometry x="850" y="500" width="120" height="60" as="geometry" />
        </mxCell>
        <mxCell id="WH7-Di_XXNlw8b60x9Ww-59" style="edgeStyle=orthogonalEdgeStyle;rounded=0;sketch=0;jumpStyle=arc;jumpSize=10;orthogonalLoop=1;jettySize=auto;html=1;exitX=1;exitY=0.5;exitDx=0;exitDy=0;entryX=0.5;entryY=0;entryDx=0;entryDy=0;shadow=0;" edge="1" parent="1" source="WH7-Di_XXNlw8b60x9Ww-13" target="WH7-Di_XXNlw8b60x9Ww-6">
          <mxGeometry relative="1" as="geometry">
            <Array as="points">
              <mxPoint x="1380" y="610" />
              <mxPoint x="1380" y="300" />
              <mxPoint x="540" y="300" />
            </Array>
          </mxGeometry>
        </mxCell>
        <mxCell id="WH7-Di_XXNlw8b60x9Ww-13" value="Send position to Cart" style="rounded=1;whiteSpace=wrap;html=1;" vertex="1" parent="1">
          <mxGeometry x="850" y="580" width="120" height="60" as="geometry" />
        </mxCell>
        <mxCell id="WH7-Di_XXNlw8b60x9Ww-14" value="Medium Left" style="rounded=1;whiteSpace=wrap;html=1;" vertex="1" parent="1">
          <mxGeometry x="1050" y="330" width="120" height="60" as="geometry" />
        </mxCell>
        <mxCell id="WH7-Di_XXNlw8b60x9Ww-57" style="edgeStyle=orthogonalEdgeStyle;rounded=0;sketch=0;jumpStyle=arc;jumpSize=10;orthogonalLoop=1;jettySize=auto;html=1;exitX=1;exitY=0.5;exitDx=0;exitDy=0;entryX=0;entryY=0.5;entryDx=0;entryDy=0;shadow=0;" edge="1" parent="1" source="WH7-Di_XXNlw8b60x9Ww-15" target="WH7-Di_XXNlw8b60x9Ww-13">
          <mxGeometry relative="1" as="geometry" />
        </mxCell>
        <mxCell id="WH7-Di_XXNlw8b60x9Ww-15" value="Read heading" style="rounded=1;whiteSpace=wrap;html=1;" vertex="1" parent="1">
          <mxGeometry x="630" y="580" width="120" height="60" as="geometry" />
        </mxCell>
        <mxCell id="WH7-Di_XXNlw8b60x9Ww-60" style="edgeStyle=orthogonalEdgeStyle;rounded=0;sketch=0;jumpStyle=arc;jumpSize=10;orthogonalLoop=1;jettySize=auto;html=1;exitX=1;exitY=0.5;exitDx=0;exitDy=0;shadow=0;" edge="1" parent="1" source="WH7-Di_XXNlw8b60x9Ww-16">
          <mxGeometry relative="1" as="geometry">
            <mxPoint x="1380" y="450" as="targetPoint" />
          </mxGeometry>
        </mxCell>
        <mxCell id="WH7-Di_XXNlw8b60x9Ww-16" value="Slight Right" style="rounded=1;whiteSpace=wrap;html=1;" vertex="1" parent="1">
          <mxGeometry x="1240" y="420" width="120" height="60" as="geometry" />
        </mxCell>
        <mxCell id="WH7-Di_XXNlw8b60x9Ww-17" value="Medium Right" style="rounded=1;whiteSpace=wrap;html=1;" vertex="1" parent="1">
          <mxGeometry x="1050" y="420" width="120" height="60" as="geometry" />
        </mxCell>
        <mxCell id="WH7-Di_XXNlw8b60x9Ww-56" style="edgeStyle=orthogonalEdgeStyle;rounded=0;sketch=0;jumpStyle=arc;jumpSize=10;orthogonalLoop=1;jettySize=auto;html=1;exitX=1;exitY=0.5;exitDx=0;exitDy=0;shadow=0;" edge="1" parent="1" source="WH7-Di_XXNlw8b60x9Ww-18">
          <mxGeometry relative="1" as="geometry">
            <mxPoint x="1380" y="360" as="targetPoint" />
          </mxGeometry>
        </mxCell>
        <mxCell id="WH7-Di_XXNlw8b60x9Ww-18" value="Slight Left" style="rounded=1;whiteSpace=wrap;html=1;" vertex="1" parent="1">
          <mxGeometry x="1240" y="330" width="120" height="60" as="geometry" />
        </mxCell>
        <mxCell id="WH7-Di_XXNlw8b60x9Ww-61" value="w" style="text;html=1;strokeColor=none;fillColor=none;align=center;verticalAlign=middle;whiteSpace=wrap;rounded=0;" vertex="1" parent="1">
          <mxGeometry x="570" y="330" width="60" height="30" as="geometry" />
        </mxCell>
        <mxCell id="WH7-Di_XXNlw8b60x9Ww-62" value="s" style="text;html=1;strokeColor=none;fillColor=none;align=center;verticalAlign=middle;whiteSpace=wrap;rounded=0;" vertex="1" parent="1">
          <mxGeometry x="570" y="420" width="60" height="30" as="geometry" />
        </mxCell>
        <mxCell id="WH7-Di_XXNlw8b60x9Ww-63" value="f" style="text;html=1;strokeColor=none;fillColor=none;align=center;verticalAlign=middle;whiteSpace=wrap;rounded=0;" vertex="1" parent="1">
          <mxGeometry x="570" y="500" width="60" height="30" as="geometry" />
        </mxCell>
        <mxCell id="WH7-Di_XXNlw8b60x9Ww-64" value="a" style="text;html=1;strokeColor=none;fillColor=none;align=center;verticalAlign=middle;whiteSpace=wrap;rounded=0;" vertex="1" parent="1">
          <mxGeometry x="790" y="330" width="60" height="30" as="geometry" />
        </mxCell>
        <mxCell id="WH7-Di_XXNlw8b60x9Ww-65" value="d" style="text;html=1;strokeColor=none;fillColor=none;align=center;verticalAlign=middle;whiteSpace=wrap;rounded=0;" vertex="1" parent="1">
          <mxGeometry x="790" y="420" width="60" height="30" as="geometry" />
        </mxCell>
        <mxCell id="WH7-Di_XXNlw8b60x9Ww-66" value="g" style="text;html=1;strokeColor=none;fillColor=none;align=center;verticalAlign=middle;whiteSpace=wrap;rounded=0;" vertex="1" parent="1">
          <mxGeometry x="790" y="500" width="60" height="30" as="geometry" />
        </mxCell>
        <mxCell id="WH7-Di_XXNlw8b60x9Ww-67" value="h" style="text;html=1;strokeColor=none;fillColor=none;align=center;verticalAlign=middle;whiteSpace=wrap;rounded=0;" vertex="1" parent="1">
          <mxGeometry x="1000" y="330" width="60" height="30" as="geometry" />
        </mxCell>
        <mxCell id="WH7-Di_XXNlw8b60x9Ww-68" value="j" style="text;html=1;strokeColor=none;fillColor=none;align=center;verticalAlign=middle;whiteSpace=wrap;rounded=0;" vertex="1" parent="1">
          <mxGeometry x="1000" y="420" width="60" height="30" as="geometry" />
        </mxCell>
        <mxCell id="WH7-Di_XXNlw8b60x9Ww-69" value="k" style="text;html=1;strokeColor=none;fillColor=none;align=center;verticalAlign=middle;whiteSpace=wrap;rounded=0;" vertex="1" parent="1">
          <mxGeometry x="1190" y="430" width="60" height="30" as="geometry" />
        </mxCell>
        <mxCell id="WH7-Di_XXNlw8b60x9Ww-70" value="l" style="text;html=1;strokeColor=none;fillColor=none;align=center;verticalAlign=middle;whiteSpace=wrap;rounded=0;" vertex="1" parent="1">
          <mxGeometry x="1190" y="330" width="60" height="30" as="geometry" />
        </mxCell>
        <mxCell id="WH7-Di_XXNlw8b60x9Ww-71" value="t" style="text;html=1;strokeColor=none;fillColor=none;align=center;verticalAlign=middle;whiteSpace=wrap;rounded=0;" vertex="1" parent="1">
          <mxGeometry x="570" y="580" width="60" height="30" as="geometry" />
        </mxCell>
        <mxCell id="WH7-Di_XXNlw8b60x9Ww-77" value="" style="rounded=0;whiteSpace=wrap;html=1;fillColor=none;" vertex="1" parent="1">
          <mxGeometry x="380" y="110" width="1020" height="540" as="geometry" />
        </mxCell>
      </root>
    </mxGraphModel>
  </diagram>
</mxfile>
